<svg width="23" height="22" viewBox="0 0 23 22" fill="none" xmlns="http://www.w3.org/2000/svg">
<path d="M20.1535 6.375L19.9545 7.022L17.8442 13.8826L17.844 13.8831C17.7887 14.0621 17.6775 14.2186 17.5267 14.3296C17.3761 14.4405 17.1938 14.5003 17.0068 14.5H17.0072V14L17.0062 14.5L20.1535 6.375ZM20.1535 6.375H19.4766H5.45531H4.79241L4.97456 7.01239L6.93299 13.8655L6.93303 13.8656C6.98535 14.0485 7.09587 14.2094 7.24784 14.3239C7.39981 14.4384 7.58496 14.5002 7.77521 14.5M20.1535 6.375L7.77521 14.5M7.77521 14.5L7.77469 14V14.5H7.77521ZM19.4766 6.875V7.375H19.3228L19.4766 6.875ZM19.4766 6.875L18.9987 6.728L18.9534 6.875H19.4766ZM5.45531 6.875L5.93607 6.73761L5.97533 6.875H5.45531ZM5.45531 6.875V7.375H5.5982L5.45531 6.875ZM21.5974 5.93385L21.5974 5.93391L19.039 14.2495L19.0385 14.2512C18.9064 14.6861 18.6376 15.0668 18.272 15.3368C17.9064 15.6068 17.4635 15.7517 17.009 15.75H17.0072H7.77548C7.31377 15.7483 6.86501 15.5972 6.49637 15.3191C6.12773 15.0411 5.85905 14.6512 5.73053 14.2078C5.73045 14.2075 5.73037 14.2072 5.73029 14.2069L2.52546 2.98767L2.42186 2.625H2.04469H1.125C0.959239 2.625 0.800268 2.55915 0.683058 2.44194C0.565848 2.32473 0.5 2.16576 0.5 2C0.5 1.83424 0.565848 1.67527 0.683058 1.55806C0.800268 1.44085 0.95924 1.375 1.125 1.375H2.32604C2.62484 1.37608 2.91525 1.47393 3.15377 1.65391C3.39234 1.83392 3.56615 2.08639 3.64916 2.37349C3.64921 2.37366 3.64926 2.37383 3.64931 2.37401L4.3324 4.76249L4.43608 5.125H4.81312H21H21C21.0979 5.12499 21.1943 5.14794 21.2816 5.192C21.369 5.23606 21.4447 5.30001 21.5028 5.37869C21.5609 5.45737 21.5998 5.54859 21.6162 5.64501C21.6326 5.74144 21.6262 5.84037 21.5974 5.93385ZM8.875 19.25C8.875 19.5219 8.79436 19.7878 8.64327 20.0139C8.49218 20.24 8.27744 20.4163 8.02619 20.5203C7.77494 20.6244 7.49847 20.6516 7.23175 20.5986C6.96503 20.5455 6.72003 20.4146 6.52773 20.2223C6.33543 20.03 6.20447 19.785 6.15142 19.5182C6.09836 19.2515 6.12559 18.9751 6.22966 18.7238C6.33374 18.4726 6.50997 18.2578 6.73609 18.1067C6.96221 17.9556 7.22805 17.875 7.5 17.875C7.86467 17.875 8.21441 18.0199 8.47227 18.2777C8.73013 18.5356 8.875 18.8853 8.875 19.25ZM16.4861 18.1067C16.7122 17.9556 16.978 17.875 17.25 17.875C17.6147 17.875 17.9644 18.0199 18.2223 18.2777C18.4801 18.5356 18.625 18.8853 18.625 19.25C18.625 19.5219 18.5444 19.7878 18.3933 20.0139C18.2422 20.24 18.0274 20.4163 17.7762 20.5203C17.5249 20.6244 17.2485 20.6516 16.9817 20.5986C16.715 20.5455 16.47 20.4146 16.2777 20.2223C16.0854 20.03 15.9545 19.785 15.9014 19.5182C15.8484 19.2515 15.8756 18.9751 15.9797 18.7238C16.0837 18.4726 16.26 18.2578 16.4861 18.1067Z" fill="black" stroke="black"/>
</svg>
